<svg id="Capa_1" data-name="Capa 1" xmlns="http://www.w3.org/2000/svg" viewBox="0 0 67.91 81.46"><defs><style>.cls-1{fill:#780389;}</style></defs><title>luz</title><path class="cls-1" d="M42.58,19.35a21,21,0,0,0-13.86,36.7c3.31,3.31,3,10.4,2.94,10.47a1.24,1.24,0,0,0,.37,1,1.38,1.38,0,0,0,.91.38H52.15a1.25,1.25,0,0,0,.91-.38,1.46,1.46,0,0,0,.37-1c0-.07-.37-7.16,2.94-10.47l.23-.23a20.92,20.92,0,0,0-14-36.47ZM54.64,54.09c-.08.07-.23.22-.23.3-2.94,3.16-3.46,8.36-3.54,10.85H34.22c-.08-2.49-.61-7.91-3.77-11.15a18.35,18.35,0,1,1,24.19,0Z" transform="translate(-8.57 -1.79)"/><path class="cls-1" d="M42.51,24.7a1.28,1.28,0,0,0,0,2.56A13.71,13.71,0,0,1,56.22,41a1.28,1.28,0,1,0,2.56,0A16.2,16.2,0,0,0,42.51,24.7Z" transform="translate(-8.57 -1.79)"/><path class="cls-1" d="M50.87,69.31H34.14a3.17,3.17,0,0,0,0,6.33H50.8A3.26,3.26,0,0,0,54,72.47,3.19,3.19,0,0,0,50.87,69.31Zm0,3.69H34.14a.59.59,0,0,1-.6-.6.55.55,0,0,1,.6-.6H50.8a.59.59,0,0,1,.6.6A.54.54,0,0,1,50.87,73Z" transform="translate(-8.57 -1.79)"/><path class="cls-1" d="M48.38,76.92H36.63a3.17,3.17,0,1,0,0,6.33H48.38a3.18,3.18,0,0,0,3.17-3.17A3.14,3.14,0,0,0,48.38,76.92Zm0,3.69H36.63A.59.59,0,0,1,36,80a.55.55,0,0,1,.6-.6H48.38a.6.6,0,1,1,0,1.2Z" transform="translate(-8.57 -1.79)"/><path class="cls-1" d="M42.51,13.09a1.27,1.27,0,0,0,1.28-1.28V3.07a1.28,1.28,0,0,0-2.56,0v8.74A1.32,1.32,0,0,0,42.51,13.09Z" transform="translate(-8.57 -1.79)"/><path class="cls-1" d="M63.83,8.27a1.21,1.21,0,0,0-1.73.3l-4.82,7.24a1.22,1.22,0,0,0,.3,1.8,1.14,1.14,0,0,0,.68.23,1.21,1.21,0,0,0,1.05-.6L64.13,10A1.16,1.16,0,0,0,63.83,8.27Z" transform="translate(-8.57 -1.79)"/><path class="cls-1" d="M27.21,17.54a1.23,1.23,0,0,0,.68-.23,1.32,1.32,0,0,0,.37-1.81L23.59,8.19a1.31,1.31,0,1,0-2.18,1.44l4.67,7.31A1.25,1.25,0,0,0,27.21,17.54Z" transform="translate(-8.57 -1.79)"/><path class="cls-1" d="M18.09,25.53l-7.61-4.15a1.33,1.33,0,0,0-1.73.53,1.2,1.2,0,0,0,.52,1.73l7.62,4.15a1.83,1.83,0,0,0,.6.15,1.25,1.25,0,0,0,1.13-.68A1.33,1.33,0,0,0,18.09,25.53Z" transform="translate(-8.57 -1.79)"/><path class="cls-1" d="M76.34,21.91a1.33,1.33,0,0,0-1.73-.53l-7.69,4.15a1.33,1.33,0,0,0-.53,1.73,1.25,1.25,0,0,0,1.13.68,1.52,1.52,0,0,0,.61-.15l7.68-4.15A1.32,1.32,0,0,0,76.34,21.91Z" transform="translate(-8.57 -1.79)"/></svg>