<svg id="Layer_2" data-name="Layer 2" xmlns="http://www.w3.org/2000/svg" viewBox="0 0 83.68 74.26"><defs><style>.cls-1{fill:#780389;}</style></defs><title>megafono</title><path class="cls-1" d="M77.81,25.67V6.54a1.14,1.14,0,0,0-1.14-1.15h-8a1.14,1.14,0,0,0-1.14,1.14h0V11.9a72.32,72.32,0,0,1-29.09,8.51c-1.78.13-3.52.19-5.16.19H11.63A4.42,4.42,0,0,0,7.22,25v.06H1.82A1.14,1.14,0,0,0,.68,26.21v18a1.14,1.14,0,0,0,1.14,1.14h5.4v.06a4.43,4.43,0,0,0,4.42,4.42h1.51L8.43,73.6a5.06,5.06,0,0,0,4,6,4.59,4.59,0,0,0,1,.1h8.3A5.72,5.72,0,0,0,27.07,72L25.18,66.8l.92-4.64h7.06A13.59,13.59,0,0,0,43.22,57.7l5.61-6.2a71.16,71.16,0,0,1,18.4,6.83l.29.16v5.36A1.14,1.14,0,0,0,68.66,65h8a1.14,1.14,0,0,0,1.14-1.14h0V44.71a7.69,7.69,0,0,0,6.55-7.59V33.26a7.7,7.7,0,0,0-6.55-7.59ZM33.25,49.79c1.66,0,3.4.06,5.18.19l1.51.13-2.3,2.54a6,6,0,0,1-4.48,2H27.59l1-4.85ZM3,43V27.36H7.22V43Zm6.54,2.34V25a2.12,2.12,0,0,1,2.13-2.12H33.27c1.31,0,2.69,0,4.1-.12V47.62c-1.41-.08-2.79-.12-4.12-.12H11.63a2.12,2.12,0,0,1-2.12-2.13Zm15,30.52a3.36,3.36,0,0,1-2.81,1.47H13.4a2.78,2.78,0,0,1-2.78-2.78,3.29,3.29,0,0,1,.05-.54l4.81-24.25H26.22l-1.14,5.77-1,5.23-1.16,5.87a1.09,1.09,0,0,0,.05.62l2,5.47a3.35,3.35,0,0,1-.41,3.14ZM46.22,51l-4.7,5.19a11.28,11.28,0,0,1-8.36,3.71h-6.6l.58-2.94h6a8.36,8.36,0,0,0,6.18-2.74l3.41-3.77.2,0c1.08.15,2.17.32,3.26.52ZM42.57,48.1l-.13,0h0c-.92-.11-1.84-.22-2.76-.3V22.6a74.67,74.67,0,0,0,27.86-8.1V55.89a73.3,73.3,0,0,0-25-7.79Zm33,14.61H69.81v-55h5.72Zm6.54-25.59a5.4,5.4,0,0,1-4.25,5.28V28a5.39,5.39,0,0,1,4.25,5.27Z" transform="translate(-0.68 -5.39)"/><path class="cls-1" d="M14.94,29.83h17a1.15,1.15,0,0,0,0-2.29h-17a1.15,1.15,0,0,0,0,2.29Z" transform="translate(-0.68 -5.39)"/><path class="cls-1" d="M14.94,36.34h17a1.15,1.15,0,0,0,0-2.29h-17a1.15,1.15,0,0,0,0,2.29Z" transform="translate(-0.68 -5.39)"/><path class="cls-1" d="M31.94,42.85a1.15,1.15,0,0,0,0-2.29h-17a1.15,1.15,0,0,0,0,2.29Z" transform="translate(-0.68 -5.39)"/></svg>