<svg id="Layer_1" data-name="Layer 1" xmlns="http://www.w3.org/2000/svg" viewBox="0 0 67.88 83.74"><defs><style>.cls-1{fill:#780389;}</style></defs><title>paquete</title><path class="cls-1" d="M43.59,4.9H24.29a5.65,5.65,0,0,0,0,11.29h2.76a1.23,1.23,0,1,0,.22-2.45h-3a3.19,3.19,0,0,1,0-6.38h19.3a3.19,3.19,0,0,1,0,6.38H32.85a1.23,1.23,0,0,0,0,2.45H43.59a5.65,5.65,0,0,0,0-11.29Z"/><path class="cls-1" d="M67.57,39.63c0-.08-9.5-14.79-9.5-14.79V7.35A7.39,7.39,0,0,0,50.69,0H17.19A7.39,7.39,0,0,0,9.81,7.35V24.84S.35,39.55.31,39.63a1.2,1.2,0,0,0-.31.81V80.88a2.86,2.86,0,0,0,2.86,2.86H65a2.86,2.86,0,0,0,2.86-2.86h0V51.35a1.23,1.23,0,0,0-2.46,0h0V80.88a.41.41,0,0,1-.41.41H2.86a.41.41,0,0,1-.41-.41h0V41.66h63v3.81a1.23,1.23,0,0,0,2.45,0v-5a1.2,1.2,0,0,0-.31-.81ZM11.71,26.43H56.17l8.25,12.78H3.48Zm.56-19.08a4.93,4.93,0,0,1,4.92-4.9h33.5a4.93,4.93,0,0,1,4.92,4.9V24H12.27Z"/><path class="cls-1" d="M20.5,74.91a1.23,1.23,0,0,0,1.74,0l3.51-3.51a8.57,8.57,0,0,0,5.05,1.51,11.76,11.76,0,0,0,2.37-.24,18.37,18.37,0,0,0,9.18-5.16,18.22,18.22,0,0,0,5.15-9.16C48.17,55,47.44,52,45.44,50s-5-2.72-8.36-2.06a18.34,18.34,0,0,0-9.17,5.16,20.1,20.1,0,0,0-4.21,6.11,1.24,1.24,0,0,0,2.26,1h0a17.11,17.11,0,0,1,3.68-5.34,15.82,15.82,0,0,1,7.91-4.5c2.57-.5,4.76,0,6.16,1.39s1.89,3.58,1.38,6.16a15.86,15.86,0,0,1-4.48,7.91,15.86,15.86,0,0,1-7.91,4.48,7.33,7.33,0,0,1-5.18-.63l3.34-3.34,4.82.64h.17A1.23,1.23,0,0,0,36,64.52l-3-.4,2.68-2.68,4.82.64h.17a1.23,1.23,0,0,0,.16-2.44l-3-.4,2-2a1.23,1.23,0,0,0-1.74-1.73l-2,2-.39-3a1.23,1.23,0,0,0-2.44.32l.65,4.82-2.61,2.7-.39-3a1.23,1.23,0,0,0-2.46.11,1.52,1.52,0,0,0,0,.21l.64,4.82-3.34,3.34A6.29,6.29,0,0,1,25,64.69a1.23,1.23,0,0,0-1.23-1.2h0a1.23,1.23,0,0,0-1.21,1.25h0A8.55,8.55,0,0,0,24,69.61l-3.52,3.51a1.22,1.22,0,0,0,0,1.73h0Z"/></svg>