<svg id="Capa_1" data-name="Capa 1" xmlns="http://www.w3.org/2000/svg" viewBox="0 0 39.56 32.14"><defs><style>.cls-1{fill:#fff;}</style></defs><title>twitter</title><path class="cls-1" d="M39.78,7.73A16.5,16.5,0,0,1,35.11,9a8,8,0,0,0,3.56-4.48,16,16,0,0,1-5.14,2A8.11,8.11,0,0,0,19.5,12a8.6,8.6,0,0,0,.19,1.85A23,23,0,0,1,3,5.41a8.11,8.11,0,0,0,2.5,10.84,8.17,8.17,0,0,1-3.67-1v.09a8.15,8.15,0,0,0,6.5,8,8.13,8.13,0,0,1-2.13.26,7,7,0,0,1-1.53-.14,8.16,8.16,0,0,0,7.58,5.65A16.31,16.31,0,0,1,2.16,32.54a15.55,15.55,0,0,1-1.94-.11,22.8,22.8,0,0,0,12.44,3.64c14.93,0,23.08-12.36,23.08-23.08,0-.36,0-.7,0-1.05A16.11,16.11,0,0,0,39.78,7.73Z" transform="translate(-0.22 -3.93)"/></svg>