<svg id="Capa_1" data-name="Capa 1" xmlns="http://www.w3.org/2000/svg" viewBox="0 0 39.58 27.71"><defs><style>.cls-1{fill:#fff;}</style></defs><title>youtube</title><path class="cls-1" d="M39,10.48A5,5,0,0,0,35.48,7C32.39,6.15,20,6.15,20,6.15S7.61,6.15,4.52,7A5.05,5.05,0,0,0,1,10.48C.21,13.58.21,20,.21,20s0,6.45.82,9.52A5,5,0,0,0,4.52,33c3.12.84,15.48.84,15.48.84s12.39,0,15.48-.81A4.94,4.94,0,0,0,39,29.55c.82-3.1.82-9.52.82-9.52S39.82,13.58,39,10.48ZM16.06,25.93V14.07L26.36,20Z" transform="translate(-0.21 -6.15)"/></svg>